# xmcd
#
# Track frame offsets:
#	150
#	12450
#	29025
#	54820
#
# Disc length: 788 seconds
#
# Revision: 0
# Processed by: cddbd v1.5.1PL2 Copyright (c) Steve Scherf et al.
# Submitted via: dBpowerAMP V4.0
#
DISCID=2b031204
DTITLE=PD'G - Southern Fried Sampler
DYEAR=1900
DGENRE=Country Rock
TTITLE0=1 - River Boat Queen
TTITLE1=2. 2 - Girls Of Arkansas
TTITLE2=3.   3 - Queen Of Fire
TTITLE3=DATA
EXTD=free sampler , opening band for Lynard Skynard 2006
EXTT0=
EXTT1=
EXTT2=
EXTT3=
PLAYORDER=
